<?xml version="1.0" encoding="UTF-8"?>
<svg width="127px" height="16px" viewBox="0 0 127 16" version="1.1" xmlns="http://www.w3.org/2000/svg" xmlns:xlink="http://www.w3.org/1999/xlink">
    <!-- Generator: Sketch 41 (35326) - http://www.bohemiancoding.com/sketch -->
    <title>logo</title>
    <desc>Created with Sketch.</desc>
    <defs></defs>
    <g id="Page-1" stroke="none" stroke-width="1" fill="none" fill-rule="evenodd">
        <g id="Desktop" transform="translate(-61.000000, -34.000000)" fill="#222222">
            <g id="logo" transform="translate(61.000000, 34.000000)">
                <g id="Layer_1-2">
                    <path d="M12.2989474,11.5444068 C12.0035561,11.5432197 11.7180568,11.6522934 11.4968421,11.8508475 C10.4006316,12.7891525 9.32313684,13.3125424 7.73229474,13.3125424 C4.85006316,13.3125424 2.76458947,10.8908475 2.76458947,7.88881356 L2.76458947,7.86440678 C2.76458947,4.88135593 4.87145263,2.4759322 7.73229474,2.4759322 C9.0570448,2.47205889 10.3379942,2.95686484 11.3364211,3.84 C11.73351,4.13604309 12.2598855,4.18378301 12.7024589,3.9638936 C13.1450324,3.74400419 13.4304946,3.29290861 13.4432842,2.79322034 C13.4451946,2.37487703 13.2543171,1.9796455 12.9272632,1.72474576 C11.6144842,0.696949153 10.0878105,0 7.75368421,0 C3.20842105,0 0,3.5579661 0,7.89966102 L0,7.94305085 C0,12.3281356 3.26991579,15.8074576 7.65743158,15.8074576 C10.0878105,15.8074576 11.7000421,15.0210169 13.1197684,13.7572881 C13.3914695,13.5140468 13.5480462,13.1648562 13.5502316,12.7972881 C13.5371919,12.1045636 12.9820304,11.5486936 12.2989474,11.5444068 L12.2989474,11.5444068 Z M22.1541474,6.67661017 C19.2505263,5.96610169 18.5633895,5.45627119 18.5633895,4.27661017 L18.5633895,4.23322034 C18.5633895,3.22983051 19.4670947,2.42169492 21.0151579,2.42169492 C22.1996,2.42169492 23.3172,2.81491525 24.4909474,3.57694915 C24.6970692,3.70688715 24.9354066,3.77461221 25.1780842,3.77220339 C25.5070401,3.77728202 25.8242891,3.64847209 26.058924,3.41456341 C26.293559,3.18065472 26.4260176,2.86114897 26.4266947,2.52745763 C26.4369291,2.09135913 26.2153575,1.68331381 25.8465053,1.45898305 C24.4314787,0.499620049 22.7595652,0.00537016978 21.0579368,0.0433898305 C18.0687579,0.0433898305 15.9164421,1.85491525 15.9164421,4.47457627 L15.9164421,4.5179661 C15.9164421,7.33288136 17.7238526,8.29288136 20.9269263,9.07932203 C23.7236,9.73288136 24.3305263,10.3213559 24.3305263,11.4115254 L24.3305263,11.4549153 C24.3305263,12.5884746 23.2984842,13.3749153 21.6568421,13.3749153 C20.1125248,13.3737631 18.6186006,12.8174321 17.4404421,11.8047458 C17.0578545,11.529029 16.5572237,11.4876545 16.135676,11.6969137 C15.7141283,11.9061729 15.4391966,12.3325419 15.4191368,12.8081356 C15.419442,13.2138085 15.6125576,13.5944488 15.9378316,13.8305085 C17.5664353,15.0804537 19.5530375,15.7565545 21.5953474,15.7559322 C24.7583158,15.7559322 26.9721263,14.0528814 26.9721263,11.1945763 L26.9721263,11.1511864 C26.9721263,8.61830508 25.3385053,7.46305085 22.1541474,6.67661017 L22.1541474,6.67661017 Z M35.4904842,6.67661017 C32.5868632,5.97966102 31.8997263,5.45355932 31.8997263,4.27661017 L31.8997263,4.23322034 C31.8997263,3.22983051 32.8034316,2.42169492 34.3514947,2.42169492 C35.5332632,2.42169492 36.6535368,2.81491525 37.8272842,3.57694915 C38.0334061,3.70688715 38.2717435,3.77461221 38.5144211,3.77220339 C38.843377,3.77728202 39.1606259,3.64847209 39.3952609,3.41456341 C39.6298958,3.18065472 39.7623545,2.86114897 39.7630316,2.52745763 C39.7732659,2.09135913 39.5516943,1.68331381 39.1828421,1.45898305 C37.7678155,0.499620049 36.095902,0.00537016978 34.3942737,0.0433898305 C31.4050947,0.0433898305 29.2527789,1.85491525 29.2527789,4.47186441 L29.2527789,4.51525424 C29.2527789,7.33016949 31.0601895,8.29016949 34.2632632,9.07661017 C37.0599368,9.73016949 37.6615158,10.3213559 37.6615158,11.4115254 L37.6615158,11.4549153 C37.6615158,12.5884746 36.6294737,13.3749153 34.9878316,13.3749153 C33.4435142,13.3737631 31.94959,12.8174321 30.7714316,11.8047458 C30.3888439,11.529029 29.8882131,11.4876545 29.4666654,11.6969137 C29.0451177,11.9061729 28.770186,12.3325419 28.7501263,12.8081356 C28.7516639,13.2147944 28.94687,13.5956292 29.2741684,13.8305085 C30.903447,15.0785166 32.8899888,15.7526924 34.9316842,15.7505085 C38.0946526,15.7505085 40.3084632,14.0474576 40.3084632,11.1891525 L40.3084632,11.1457627 C40.3084632,8.61830508 38.6748421,7.46305085 35.4904842,6.67661017 L35.4904842,6.67661017 Z M47.6878316,7.54983051 L43.6425474,7.54983051 C42.9352392,7.54983051 42.3618526,8.13140503 42.3618526,8.84881356 C42.3618526,9.56622209 42.9352392,10.1477966 43.6425474,10.1477966 L47.6851579,10.1477966 C48.3924661,10.1477966 48.9658526,9.56622209 48.9658526,8.84881356 C48.9658526,8.13140503 48.3924661,7.54983051 47.6851579,7.54983051 L47.6878316,7.54983051 Z M59.8905263,0.271186441 L49.8775789,0.271186441 C49.2227829,0.3022115 48.7076241,0.849705455 48.7076241,1.51457627 C48.7076241,2.17944709 49.2227829,2.72694104 49.8775789,2.7579661 L53.5351789,2.7579661 L53.5351789,14.3159322 C53.5351789,15.0647929 54.1337035,15.6718644 54.8720211,15.6718644 C55.6103386,15.6718644 56.2088632,15.0647929 56.2088632,14.3159322 L56.2088632,2.74983051 L59.8905263,2.74983051 C60.5212063,2.68991856 61.0033087,2.15299405 61.0033087,1.51050847 C61.0033087,0.868022904 60.5212063,0.331098387 59.8905263,0.271186441 L59.8905263,0.271186441 Z M70.2804632,0.271186441 L64.8929895,0.271186441 C64.5364553,0.264494827 64.1925776,0.405201712 63.9404267,0.660953304 C63.6882758,0.916704896 63.54955,1.26549318 63.5561474,1.62711864 L63.5561474,14.3159322 C63.587953,15.033123 64.1704758,15.5979851 64.8782842,15.5979851 C65.5860926,15.5979851 66.1686155,15.033123 66.2004211,14.3159322 L66.2004211,10.2128814 L69.5345053,10.2128814 L73.1921053,14.9477966 C73.4749371,15.3911485 73.9629224,15.6555337 74.4834947,15.6474576 C74.8146609,15.653261 75.1345314,15.5253673 75.3727133,15.2919217 C75.6108952,15.0584761 75.7478702,14.7386088 75.7534947,14.4027119 C75.7396195,14.0188505 75.5863021,13.6537477 75.3230316,13.3776271 L72.4408,9.68949153 C74.4621053,9.05762712 75.8604421,7.57152542 75.8604421,5.12813559 L75.8604421,5.08474576 C75.8924114,3.86230368 75.4442249,2.67706178 74.6145053,1.78983051 C73.6466316,0.829830508 72.1627368,0.271186441 70.2697684,0.271186441 L70.2804632,0.271186441 Z M73.1840842,5.29084746 C73.1840842,6.83932203 71.9782526,7.84271186 70.0879579,7.84271186 L66.2030947,7.84271186 L66.2030947,2.71186441 L70.0505263,2.71186441 C72.0076632,2.71186441 73.1707158,3.60677966 73.1707158,5.2420339 L73.1840842,5.29084746 Z M80.4030316,0.162711864 C80.0502823,0.154658082 79.7092988,0.291556506 79.4575488,0.542305333 C79.2057987,0.79305416 79.064657,1.1363635 79.0661895,1.49423729 L79.0661895,14.3159322 C79.0979951,15.033123 79.6805179,15.5979851 80.3883263,15.5979851 C81.0961347,15.5979851 81.6786576,15.033123 81.7104632,14.3159322 L81.7104632,1.48338983 C81.7127019,1.1262467 81.5725257,0.783347871 81.3217818,0.532598184 C81.0710379,0.281848497 80.7310164,0.144538533 80.3789684,0.151864407 L80.4030316,0.162711864 Z M97.1590105,11.5525424 C96.8636193,11.5513552 96.5781199,11.660429 96.3569053,11.8589831 C95.2606947,12.7972881 94.1832,13.320678 92.5923579,13.320678 C89.7101263,13.320678 87.6246526,10.8989831 87.6246526,7.89694915 L87.6246526,7.86440678 C87.6246526,4.88135593 89.7315158,2.4759322 92.5923579,2.4759322 C93.9148106,2.47769199 95.1916835,2.96624785 96.1857895,3.85084746 C96.5828785,4.14689054 97.1092539,4.19463047 97.5518273,3.97474106 C97.9944008,3.75485165 98.279863,3.30375607 98.2926526,2.8040678 C98.2945631,2.38572449 98.1036855,1.99049295 97.7766316,1.73559322 C96.4451368,0.696949153 94.9157895,0 92.5950316,0 C88.0337263,0 84.8413474,3.5579661 84.8413474,7.89966102 L84.8413474,7.94305085 C84.8413474,12.3281356 88.1112632,15.8074576 92.4987789,15.8074576 C94.9291579,15.8074576 96.5413895,15.0210169 97.9611158,13.7572881 C98.2356055,13.5115402 98.3924528,13.1577937 98.3915789,12.7864407 C98.3727809,12.0958707 97.8160533,11.5456104 97.1349474,11.5444068 L97.1590105,11.5525424 Z M108.121116,6.99118644 L112.810758,2.40813559 C113.108239,2.16206992 113.281798,1.79408367 113.284,1.40474576 C113.290863,1.06657214 113.159951,0.740490851 112.922128,0.503377076 C112.684304,0.266263301 112.360614,0.139099239 112.027368,0.151864407 C111.605868,0.141857782 111.202661,0.326390717 110.931158,0.653559322 L103.803116,7.94305085 L103.803116,1.48338983 C103.803116,0.74201776 103.210576,0.141016949 102.479642,0.141016949 C101.748708,0.141016949 101.156168,0.74201776 101.156168,1.48338983 L101.156168,14.3159322 C101.156168,15.0573043 101.748708,15.6583051 102.479642,15.6583051 C103.210576,15.6583051 103.803116,15.0573043 103.803116,14.3159322 L103.803116,11.1511864 L106.254884,8.75118644 L111.094253,15.0128814 C111.336771,15.4023908 111.757681,15.6403633 112.211853,15.6447458 C112.562156,15.6572592 112.902425,15.5248037 113.15453,15.2777935 C113.406634,15.0307833 113.548912,14.6904411 113.548695,14.3349153 C113.546138,13.9803092 113.415864,13.6388826 113.1824,13.3749153 L108.121116,6.99118644 Z M121.9708,6.68474576 C119.051137,5.96610169 118.364,5.45627119 118.364,4.27661017 L118.364,4.23322034 C118.364,3.22983051 119.267705,2.42169492 120.815768,2.42169492 C121.997537,2.42169492 123.117811,2.81491525 124.291558,3.57694915 C124.49768,3.70688715 124.736017,3.77461221 124.978695,3.77220339 C125.307651,3.77728202 125.6249,3.64847209 125.859535,3.41456341 C126.094169,3.18065472 126.226628,2.86114897 126.227305,2.52745763 C126.23754,2.09135913 126.015968,1.68331381 125.647116,1.45898305 C124.229834,0.498012159 122.554874,0.00368972825 120.850526,0.0433898305 C117.869368,0.0433898305 115.717053,1.85491525 115.717053,4.47457627 L115.717053,4.5179661 C115.717053,7.33288136 117.524463,8.29288136 120.727537,9.07932203 C123.524211,9.73288136 124.125789,10.3240678 124.125789,11.4142373 L124.125789,11.4576271 C124.125789,12.5911864 123.093747,13.3776271 121.452105,13.3776271 C119.907788,13.376475 118.413864,12.8201439 117.235705,11.8074576 C116.853118,11.5317409 116.352487,11.4903664 115.930939,11.6996256 C115.509391,11.9088848 115.23446,12.3352538 115.2144,12.8108475 C115.216799,13.2165475 115.411909,13.5961848 115.738442,13.8305085 C117.364127,15.0782147 119.346614,15.7541928 121.385263,15.7559322 C124.548232,15.7559322 126.762042,14.0528814 126.762042,11.1945763 L126.762042,11.1511864 C126.772737,8.61830508 125.128421,7.46305085 121.954758,6.67661017 L121.9708,6.68474576 Z"></path>
                </g>
            </g>
        </g>
    </g>
</svg>